<svg xmlns="http://www.w3.org/2000/svg" xmlns:xlink="http://www.w3.org/1999/xlink" width="667" height="1049.262" viewBox="0 0 667 1049.262">
  <defs>
    <linearGradient id="linear-gradient" x1="1.626" y1="-0.035" x2="-0.156" y2="0.684" gradientUnits="objectBoundingBox">
      <stop offset="0" stop-color="#fff"/>
      <stop offset="0.903" stop-color="#fff" stop-opacity="0"/>
    </linearGradient>
    <linearGradient id="linear-gradient-2" x1="1.928" y1="0.004" x2="0.145" y2="0.724" xlink:href="#linear-gradient"/>
    <linearGradient id="linear-gradient-3" x1="1.019" y1="0.198" x2="0.063" y2="0.755" gradientUnits="objectBoundingBox">
      <stop offset="0" stop-color="#fff"/>
      <stop offset="1" stop-color="#fff" stop-opacity="0"/>
    </linearGradient>
    <linearGradient id="linear-gradient-4" x1="0.691" y1="0.273" x2="0.339" y2="0.691" xlink:href="#linear-gradient-3"/>
    <linearGradient id="linear-gradient-5" x1="0.343" y1="0.006" x2="0.648" y2="0.966" xlink:href="#linear-gradient-3"/>
    <linearGradient id="linear-gradient-6" x1="0.669" y1="0.284" x2="0.504" y2="0.495" xlink:href="#linear-gradient-3"/>
    <linearGradient id="linear-gradient-7" x1="0.593" y1="0.34" x2="0.422" y2="0.635" xlink:href="#linear-gradient-3"/>
    <linearGradient id="linear-gradient-8" x1="0.612" y1="0.323" x2="0.406" y2="0.649" xlink:href="#linear-gradient-3"/>
    <linearGradient id="linear-gradient-9" x1="0.248" y1="-0.125" x2="0.628" y2="0.817" xlink:href="#linear-gradient-3"/>
  </defs>
  <g id="Illustration" transform="translate(-26.1 -0.238)">
    <path id="Path" d="M91.8,265.3c-8.5-4.9-14.6-5-18.3-.4-3.8,4.6-5.6,12.4-5.6,23.3v59c0,11.2-1,20.5-3.1,27.9-2.1,7.7-5.6,13.1-10.4,16.3-4.7,3.3-11.1,4.1-19.2,2.6-7.9-1.4-17.8-5.6-29.6-12.4L0,378.3V331.8l7.1,4.1c8.5,4.9,14.1,5.5,16.9,2q4.5-5.25,4.5-21.6v-52c0-13.6,1.3-24.3,4-32.1a21.917,21.917,0,0,1,15.8-15.1c-7.9-11.3-13.2-22.5-15.8-33.4A158.319,158.319,0,0,1,28.6,147V95c0-10.9-1.5-19.9-4.5-26.8-2.8-6.8-8.5-12.7-16.9-17.6L.1,46.5V0L5.7,3.3A148.459,148.459,0,0,1,35.3,25.1,99.868,99.868,0,0,1,54.5,49.9,96.167,96.167,0,0,1,64.9,78.2,150.255,150.255,0,0,1,68,109.7v59a77.183,77.183,0,0,0,5.6,29.8,42.451,42.451,0,0,0,18.3,20.7Z" transform="translate(303 35.3)" opacity="0.4" fill="url(#linear-gradient)"/>
    <path id="Path-2" data-name="Path" d="M0,129.462c8.5,4.9,14.6,5,18.3.4,3.8-4.6,5.6-12.4,5.6-23.3v-59c0-11.2,1-20.5,3.1-27.9,2.1-7.7,5.5-13.1,10.2-16.4,4.9-3.2,11.3-4,19.2-2.6,8.1,1.5,18.1,5.7,29.9,12.6l5.6,3.3v46.5l-7.1-4.1c-8.5-4.9-14.2-5.6-17.2-2.1-2.8,3.6-4.2,10.8-4.2,21.8v52c0,13.5-1.3,24.3-4,32.1a21.917,21.917,0,0,1-15.8,15.1c7.9,11.3,13.2,22.5,15.8,33.4a158.32,158.32,0,0,1,3.9,36.7v52q0,16.35,4.2,26.7c3,6.9,8.7,12.9,17.2,17.7l7.1,4.1v46.5l-5.6-3.3a157.376,157.376,0,0,1-29.9-21.9,106.077,106.077,0,0,1-19.2-24.8,100.268,100.268,0,0,1-10.1-28.1,150.255,150.255,0,0,1-3.1-31.5v-59a77.183,77.183,0,0,0-5.6-29.8A42.451,42.451,0,0,0,0,175.862v-46.4Z" transform="translate(180.6 0.238)" opacity="0.4" fill="url(#linear-gradient-2)"/>
    <path id="Path-3" data-name="Path" d="M.1,0,211.2,121.9,211.1,628,0,506.2Z" transform="translate(423.6 13.1)" opacity="0.15" fill="url(#linear-gradient-3)"/>
    <path id="Path-4" data-name="Path" d="M0,0,168,96.9v46.5L0,46.5Z" transform="translate(384 79.4)" fill="#00629c"/>
    <path id="Path-5" data-name="Path" d="M0,0,159.2,91.9V232.6L0,140.7Z" transform="translate(451.2 294.7)" opacity="0.2" fill="url(#linear-gradient-4)"/>
    <path id="Path-6" data-name="Path" d="M0,0,161.6,93.3v15.9L0,15.9Z" transform="translate(449.6 186.8)" fill="#fff" opacity="0.15"/>
    <path id="Path-7" data-name="Path" d="M0,0,139.7,80.6V96.5L0,15.9Z" transform="translate(449.6 218.8)" fill="#fff" opacity="0.15"/>
    <path id="Path-8" data-name="Path" d="M0,0,118.6,68.4V84.3L0,15.9Z" transform="translate(449.6 250.4)" fill="#fff" opacity="0.15"/>
    <path id="Path-9" data-name="Path" d="M.1,0,211.2,121.9v67.8L0,67.9Z" transform="translate(423.6 13.1)" opacity="0.2" fill="url(#linear-gradient-5)"/>
    <path id="Path-10" data-name="Path" d="M26.8,27.875c0,10.3-6,15.1-13.4,10.8S0,22.675,0,12.375s6-15.1,13.4-10.8S26.8,17.675,26.8,27.875Z" transform="translate(449.6 50.025)" fill="#fff" opacity="0.2"/>
    <path id="Path-11" data-name="Path" d="M.1,0,649.9,375l-.1,506.4L0,506.4Z" transform="translate(43.2 168.1)" opacity="0.15" fill="url(#linear-gradient-6)"/>
    <path id="Path-12" data-name="Path" d="M0,0,167.9,96.9v46.5L0,46.6Z" transform="translate(106.4 323.5)" fill="#00629c"/>
    <path id="Path-13" data-name="Path" d="M0,0,372.8,215.2v15.9L0,15.9Z" transform="translate(87.1 420.7)" fill="#fff" opacity="0.15"/>
    <path id="Path-14" data-name="Path" d="M0,0,321.6,185.6v15.9L0,15.9Z" transform="translate(87.1 452.7)" fill="#fff" opacity="0.15"/>
    <path id="Path-15" data-name="Path" d="M0,0,273.7,158v15.9L0,15.9Z" transform="translate(87.1 484.4)" fill="#fff" opacity="0.15"/>
    <path id="Path-16" data-name="Path" d="M0,0,327.8,189.2V329.9L0,140.7Z" transform="translate(338.7 686)" opacity="0.2" fill="url(#linear-gradient-7)"/>
    <path id="Path-17" data-name="Path" d="M0,0,49.4,28.5V75L0,46.5Z" transform="translate(363.4 728.1)" fill="#fff" opacity="0.15"/>
    <path id="Path-18" data-name="Path" d="M0,0,49.4,28.5V75L0,46.5Z" transform="translate(423.9 765.3)" fill="#fff" opacity="0.15"/>
    <path id="Path-19" data-name="Path" d="M0,0,49.4,28.5V75L0,46.5Z" transform="translate(484.7 799.8)" fill="#fff" opacity="0.15"/>
    <path id="Path-20" data-name="Path" d="M0,0,49.4,28.5V75L0,46.5Z" transform="translate(545.5 836.5)" fill="#fff" opacity="0.15"/>
    <path id="Path-21" data-name="Path" d="M0,0,272.9,157.5V298.2L0,140.6Z" transform="translate(26.1 500.2)" opacity="0.2" fill="url(#linear-gradient-8)"/>
    <path id="Path-22" data-name="Path" d="M0,0,216.8,125.1V141L0,15.9Z" transform="translate(53.6 552.1)" fill="#fff" opacity="0.15"/>
    <path id="Path-23" data-name="Path" d="M0,0,173.6,100.2v15.9L0,15.8Z" transform="translate(53.6 584.1)" fill="#fff" opacity="0.15"/>
    <path id="Path-24" data-name="Path" d="M0,0,648.9,374.6v68.6L0,68.7Z" transform="translate(43.3 168.1)" opacity="0.2" fill="url(#linear-gradient-9)"/>
    <path id="Path-25" data-name="Path" d="M26.8,27.875c0,9.275-6,15.1-13.4,10.8S0,22.675,0,12.375s6-15.1,13.4-10.8S26.8,18.6,26.8,27.875Z" transform="translate(87.2 215.325)" fill="#fff" opacity="0.2"/>
  </g>
</svg>
